<svg width="32" height="32" viewBox="0 0 32 32" fill="none" xmlns="http://www.w3.org/2000/svg">
<path fill-rule="evenodd" clip-rule="evenodd" d="M15.9999 6.0249C14.9526 6.0249 13.9156 6.23118 12.948 6.63196C11.9804 7.03274 11.1013 7.62018 10.3607 8.36073C9.62017 9.10127 9.03274 9.98043 8.63196 10.948C8.23118 11.9156 8.0249 12.9526 8.0249 13.9999C8.0249 18.6156 7.05711 21.3953 6.12842 22.9999H25.8714C24.9427 21.3953 23.9749 18.6156 23.9749 13.9999C23.9749 12.9526 23.7686 11.9156 23.3678 10.948C22.9671 9.98043 22.3796 9.10127 21.6391 8.36073C20.8985 7.62018 20.0194 7.03274 19.0518 6.63196C18.0842 6.23118 17.0472 6.0249 15.9999 6.0249ZM12.1826 4.7842C13.3929 4.28291 14.69 4.0249 15.9999 4.0249C17.3098 4.0249 18.6069 4.28291 19.8172 4.7842C21.0274 5.28549 22.127 6.02025 23.0533 6.94651C23.9795 7.87278 24.7143 8.97241 25.2156 10.1826C25.7169 11.3929 25.9749 12.69 25.9749 13.9999C25.9749 18.3333 26.8817 20.7533 27.6028 21.9989L27.6034 21.9999C27.7787 22.3034 27.8711 22.6477 27.8714 22.9981C27.8717 23.3486 27.7799 23.693 27.6052 23.9969C27.4305 24.3007 27.179 24.5533 26.8759 24.7293C26.5729 24.9054 26.2289 24.9987 25.8784 24.9999L25.8749 24.9999H6.1249L6.12137 24.9999C5.7709 24.9987 5.4269 24.9054 5.12384 24.7293C4.82078 24.5533 4.56931 24.3007 4.39461 23.9969C4.2199 23.693 4.12811 23.3486 4.12842 22.9981C4.12873 22.6477 4.22113 22.3034 4.39637 21.9999L4.39697 21.9989C5.11809 20.7533 6.0249 18.3333 6.0249 13.9999C6.0249 12.69 6.28291 11.3929 6.7842 10.1826C7.28549 8.97241 8.02024 7.87278 8.94651 6.94651C9.87277 6.02025 10.9724 5.28549 12.1826 4.7842Z" fill="white"/>
<path fill-rule="evenodd" clip-rule="evenodd" d="M12 23C12.5523 23 13 23.4477 13 24V25C13 25.7956 13.3161 26.5587 13.8787 27.1213C14.4413 27.6839 15.2044 28 16 28C16.7956 28 17.5587 27.6839 18.1213 27.1213C18.6839 26.5587 19 25.7956 19 25V24C19 23.4477 19.4477 23 20 23C20.5523 23 21 23.4477 21 24V25C21 26.3261 20.4732 27.5979 19.5355 28.5355C18.5979 29.4732 17.3261 30 16 30C14.6739 30 13.4021 29.4732 12.4645 28.5355C11.5268 27.5979 11 26.3261 11 25V24C11 23.4477 11.4477 23 12 23Z" fill="white"/>
<path fill-rule="evenodd" clip-rule="evenodd" d="M22.0793 2.46634C22.3741 1.99932 22.9917 1.85971 23.4587 2.15451C25.6499 3.5377 27.4184 5.497 28.5706 7.81797C28.8162 8.31265 28.6143 8.91275 28.1196 9.15833C27.6249 9.40391 27.0248 9.20197 26.7792 8.70729C25.7902 6.71495 24.2721 5.03308 22.3911 3.84574C21.9241 3.55094 21.7845 2.93336 22.0793 2.46634Z" fill="white"/>
<path fill-rule="evenodd" clip-rule="evenodd" d="M9.92054 2.46634C10.2153 2.93336 10.0757 3.55094 9.60872 3.84574C7.72779 5.03308 6.20971 6.71495 5.22063 8.70729C4.97505 9.20197 4.37495 9.40391 3.88027 9.15833C3.38559 8.91275 3.18365 8.31265 3.42923 7.81797C4.58146 5.497 6.34994 3.5377 8.54113 2.15451C9.00815 1.85971 9.62574 1.99932 9.92054 2.46634Z" fill="white"/>
</svg>
