<svg width="32" height="32" viewBox="0 0 32 32" fill="none" xmlns="http://www.w3.org/2000/svg">
<path fill-rule="evenodd" clip-rule="evenodd" d="M16.6743 5.04692C14.003 4.87951 11.3625 5.69289 9.2485 7.33436C7.13446 8.97583 5.69226 11.3325 5.19266 13.9619C4.69306 16.5914 5.17041 19.3128 6.5351 21.6152C6.67485 21.851 6.7117 22.1338 6.63703 22.3975L5.46582 26.5341L9.60243 25.3629L9.87485 26.3251L10.3847 25.4649C12.6872 26.8295 15.4086 27.3069 18.038 26.8073C20.6674 26.3077 23.0241 24.8655 24.6656 22.7515C26.3071 20.6374 27.1204 17.9969 26.953 15.3257C26.7856 12.6544 25.6489 10.1361 23.7564 8.24357C21.8638 6.35101 19.3455 5.21433 16.6743 5.04692ZM9.74396 27.4015C12.3825 28.8479 15.4464 29.3355 18.4113 28.7721C21.5194 28.1816 24.305 26.4769 26.2453 23.978C28.1856 21.4792 29.147 18.3581 28.9491 15.2006C28.7512 12.0431 27.4076 9.06641 25.1706 6.82936C22.9335 4.5923 19.9569 3.24871 16.7994 3.05084C13.6419 2.85296 10.5208 3.81439 8.02191 5.75465C5.52306 7.69491 3.81835 10.4805 3.22781 13.5886C2.66446 16.5536 3.152 19.6175 4.59848 22.256L3.53864 25.9993C3.43992 26.34 3.4342 26.7011 3.52214 27.0448C3.6105 27.3903 3.79015 27.7056 4.04227 27.9577C4.29439 28.2098 4.60969 28.3894 4.9551 28.4778C5.2989 28.5657 5.65995 28.56 6.00075 28.4613L9.74396 27.4015Z" fill="white"/>
<path d="M16 17.5C16.8284 17.5 17.5 16.8284 17.5 16C17.5 15.1716 16.8284 14.5 16 14.5C15.1716 14.5 14.5 15.1716 14.5 16C14.5 16.8284 15.1716 17.5 16 17.5Z" fill="white"/>
<path d="M10 17.5C10.8284 17.5 11.5 16.8284 11.5 16C11.5 15.1716 10.8284 14.5 10 14.5C9.17157 14.5 8.5 15.1716 8.5 16C8.5 16.8284 9.17157 17.5 10 17.5Z" fill="white"/>
<path d="M22 17.5C22.8284 17.5 23.5 16.8284 23.5 16C23.5 15.1716 22.8284 14.5 22 14.5C21.1716 14.5 20.5 15.1716 20.5 16C20.5 16.8284 21.1716 17.5 22 17.5Z" fill="white"/>
</svg>
