<svg width="33" height="32" viewBox="0 0 33 32" fill="none" xmlns="http://www.w3.org/2000/svg">
<path fill-rule="evenodd" clip-rule="evenodd" d="M16.5 11C13.7386 11 11.5 13.2386 11.5 16C11.5 18.7614 13.7386 21 16.5 21C19.2614 21 21.5 18.7614 21.5 16C21.5 13.2386 19.2614 11 16.5 11ZM9.5 16C9.5 12.134 12.634 9 16.5 9C20.366 9 23.5 12.134 23.5 16C23.5 19.866 20.366 23 16.5 23C12.634 23 9.5 19.866 9.5 16Z" fill="white"/>
<path fill-rule="evenodd" clip-rule="evenodd" d="M12.2178 2.66066C12.4925 2.572 12.7921 2.60633 13.0395 2.75481L15.9626 4.50868C16.3209 4.49267 16.6798 4.49268 17.0381 4.50871L19.949 2.76672C20.1945 2.61984 20.4911 2.5851 20.7638 2.67126C22.6741 3.27479 24.4304 4.28627 25.9111 5.63569C26.1234 5.82913 26.2422 6.10449 26.2374 6.39164L26.1802 9.78943C26.3776 10.0926 26.5587 10.406 26.7228 10.7283L29.686 12.3758C29.9355 12.5145 30.1138 12.7533 30.176 13.0319C30.612 14.9845 30.6166 17.0087 30.1895 18.9633C30.1281 19.2443 29.9487 19.4852 29.697 19.6246L26.7224 21.2721C26.5584 21.5942 26.3774 21.9073 26.1802 22.2102L26.2374 25.608C26.2422 25.8951 26.1234 26.1705 25.9111 26.364C24.4335 27.7104 22.6846 28.7248 20.7822 29.339C20.5076 29.4276 20.208 29.3933 19.9605 29.2448L17.0374 27.4909C16.6791 27.5069 16.3203 27.5069 15.962 27.4909L13.051 29.2329C12.8056 29.3798 12.509 29.4145 12.2363 29.3284C10.326 28.7248 8.56968 27.7133 7.08896 26.3639C6.87668 26.1705 6.75783 25.8951 6.76268 25.6079L6.81994 22.2178C6.62371 21.9116 6.44278 21.5958 6.2778 21.2716L3.31411 19.6238C3.0646 19.4851 2.88627 19.2463 2.82407 18.9677C2.38811 17.0151 2.38351 14.9909 2.81059 13.0363C2.87199 12.7553 3.05142 12.5144 3.30304 12.375L6.27768 10.7275C6.44167 10.4054 6.62265 10.0923 6.81988 9.78943L6.76268 6.39164C6.75784 6.10448 6.87671 5.82911 7.08899 5.63566C8.5666 4.28919 10.3154 3.27478 12.2178 2.66066ZM8.77018 6.82064L8.82489 10.0705C8.82844 10.281 8.76543 10.4873 8.64485 10.6599C8.37663 11.0439 8.1418 11.4502 7.94295 11.8743C7.85355 12.065 7.70625 12.2226 7.52204 12.3246L4.67771 13.8999C4.42892 15.2889 4.43237 16.7115 4.68791 18.0993L7.52347 19.6758C7.70629 19.7775 7.85263 19.9339 7.9419 20.123C8.14511 20.5537 8.38214 20.9675 8.65075 21.3607C8.76754 21.5317 8.82839 21.7347 8.82489 21.9417L8.77021 25.1789C9.85109 26.0919 11.0871 26.8037 12.4194 27.2801L15.199 25.6167C15.3751 25.5114 15.5793 25.4627 15.7839 25.4774C16.2607 25.5115 16.7394 25.5115 17.2162 25.4774C17.4212 25.4627 17.6258 25.5116 17.802 25.6173L20.5906 27.2904C21.9185 26.8065 23.1506 26.0916 24.2299 25.179L24.1752 21.9291C24.1716 21.7186 24.2346 21.5123 24.3552 21.3397C24.6234 20.9557 24.8583 20.5494 25.0571 20.1253C25.1465 19.9346 25.2938 19.777 25.478 19.675L28.3224 18.0997C28.5712 16.7107 28.5677 15.2881 28.3122 13.9003L25.4766 12.3238C25.293 12.2217 25.1463 12.0645 25.0571 11.8743C24.8583 11.4502 24.6234 11.0439 24.3552 10.6599C24.2346 10.4873 24.1716 10.281 24.1752 10.0705L24.2299 6.82078C23.149 5.90768 21.913 5.19596 20.5806 4.71952L17.801 6.3829C17.625 6.48824 17.4208 6.5369 17.2162 6.52226C16.7394 6.48815 16.2607 6.48815 15.7839 6.52226C15.5789 6.53692 15.3743 6.48805 15.198 6.3823L12.4095 4.70917C11.0815 5.19316 9.84945 5.90799 8.77018 6.82064Z" fill="white"/>
</svg>
