<svg width="33" height="32" viewBox="0 0 33 32" fill="none" xmlns="http://www.w3.org/2000/svg">
<path fill-rule="evenodd" clip-rule="evenodd" d="M16.5 5C10.4249 5 5.5 9.92487 5.5 16C5.5 22.0751 10.4249 27 16.5 27C22.5751 27 27.5 22.0751 27.5 16C27.5 9.92487 22.5751 5 16.5 5ZM3.5 16C3.5 8.8203 9.3203 3 16.5 3C23.6797 3 29.5 8.8203 29.5 16C29.5 23.1797 23.6797 29 16.5 29C9.3203 29 3.5 23.1797 3.5 16Z" fill="white"/>
<path d="M16.5 24C17.3284 24 18 23.3284 18 22.5C18 21.6716 17.3284 21 16.5 21C15.6716 21 15 21.6716 15 22.5C15 23.3284 15.6716 24 16.5 24Z" fill="white"/>
<path fill-rule="evenodd" clip-rule="evenodd" d="M14.7779 9.34254C15.6002 9.00195 16.505 8.91283 17.3779 9.08647C18.2508 9.2601 19.0526 9.68869 19.682 10.318C20.3113 10.9474 20.7399 11.7492 20.9135 12.6221C21.0872 13.495 20.9981 14.3998 20.6575 15.2221C20.3169 16.0443 19.7401 16.7471 19.0001 17.2416C18.5413 17.5482 18.0325 17.7661 17.5 17.8875V18C17.5 18.5523 17.0523 19 16.5 19C15.9477 19 15.5 18.5523 15.5 18V17C15.5 16.7348 15.6054 16.4804 15.7929 16.2929C15.9804 16.1054 16.2348 16 16.5 16C16.9945 16 17.4778 15.8534 17.8889 15.5787C18.3 15.304 18.6205 14.9135 18.8097 14.4567C18.9989 13.9999 19.0484 13.4972 18.952 13.0123C18.8555 12.5273 18.6174 12.0819 18.2678 11.7322C17.9181 11.3826 17.4727 11.1445 16.9877 11.048C16.5028 10.9516 16.0001 11.0011 15.5433 11.1903C15.0865 11.3795 14.696 11.7 14.4213 12.1111C14.1466 12.5222 14 13.0055 14 13.5C14 14.0523 13.5523 14.5 13 14.5C12.4477 14.5 12 14.0523 12 13.5C12 12.61 12.2639 11.74 12.7584 10.9999C13.2529 10.2599 13.9557 9.68314 14.7779 9.34254Z" fill="white"/>
</svg>
