<svg width="33" height="32" viewBox="0 0 33 32" fill="none" xmlns="http://www.w3.org/2000/svg">
<path fill-rule="evenodd" clip-rule="evenodd" d="M5.08579 5.58579C5.46086 5.21071 5.96957 5 6.5 5H26.5C27.0304 5 27.5391 5.21071 27.9142 5.58579C28.2893 5.96086 28.5 6.46957 28.5 7V14.3375C28.5 25.5235 19.0029 29.2256 17.1406 29.8447C16.7264 29.9931 16.2736 29.9931 15.8594 29.8447C13.9971 29.2256 4.5 25.5235 4.5 14.3375V7C4.5 6.46957 4.71071 5.96086 5.08579 5.58579ZM26.5 7L6.5 7L6.5 14.3375C6.5 24.1201 14.7747 27.3787 16.5 27.9501C18.2253 27.3787 26.5 24.1201 26.5 14.3375V7Z" fill="white"/>
<path fill-rule="evenodd" clip-rule="evenodd" d="M22.7236 12.3097C23.1048 12.7093 23.0899 13.3423 22.6903 13.7236L15.3528 20.7236C14.9662 21.0924 14.3579 21.0921 13.9716 20.723L10.3091 17.223C9.90983 16.8414 9.89547 16.2084 10.277 15.8091C10.6586 15.4098 11.2916 15.3955 11.6909 15.777L14.6631 18.6174L21.3097 12.2765C21.7093 11.8952 22.3423 11.9101 22.7236 12.3097Z" fill="white"/>
</svg>
