<svg width="32" height="33" viewBox="0 0 32 33" fill="none" xmlns="http://www.w3.org/2000/svg">
<path fill-rule="evenodd" clip-rule="evenodd" d="M16 27.5C22.0751 27.5 27 22.5751 27 16.5C27 10.4249 22.0751 5.5 16 5.5C9.92487 5.5 5 10.4249 5 16.5C5 22.5751 9.92487 27.5 16 27.5ZM29 16.5C29 23.6797 23.1797 29.5 16 29.5C8.8203 29.5 3 23.6797 3 16.5C3 9.3203 8.8203 3.5 16 3.5C23.1797 3.5 29 9.3203 29 16.5Z" fill="#FFFDFD"/>
<path fill-rule="evenodd" clip-rule="evenodd" d="M21.169 18.7433C20.7584 19.1127 20.1262 19.0795 19.7567 18.669L16 14.4948L12.2433 18.669C11.8738 19.0795 11.2415 19.1127 10.831 18.7433C10.4205 18.3738 10.3872 17.7415 10.7567 17.331L15.2567 12.331C15.4463 12.1203 15.7165 12 16 12C16.2835 12 16.5536 12.1203 16.7433 12.331L21.2433 17.331C21.6127 17.7415 21.5795 18.3738 21.169 18.7433Z" fill="#FFFDFD"/>
</svg>
